#!OML:ASF E:\Steps\Project 1\Capture day 1\Session 2\Subject.ASF
:FULLY-SPECIFIED
:DEGREES
158
root 8.81079 16.3123 30.7564 -150.589 -0.671663 179.2
lowerback -29.1049 -1.32023 -5.9906
upperback -2.24605 -0.540338 -0.580509
thorax 12.8566 -0.902296 2.34779
lowerneck -7.95312 -1.21183 -0.618735
upperneck 0.0329408 -1.89741 5.47225
head 1.43673 -0.9175 1.76687
rclavicle -4.96962e-015 3.97569e-016
rhumerus -36.5689 -19.8332 -80.3811
rradius 30.7462
rwrist -0.468589
rhand -5.81886 -46.7099
rfingers 7.12502
rthumb 20.0065 -75.7
lclavicle -4.96962e-015 3.97569e-016
lhumerus -29.8722 7.83396 80.0826
lradius 21.3246
lwrist -6.09897
lhand -21.2872 -13.6828
lfingers 7.12502
lthumb 5.09708 16.2359
rfemur -25.114 5.74164 17.9429
rtibia 6.23257
rfoot -19.5952 -7.755
rtoes -31.0817
lfemur -25.9514 -9.93934 -17.6506
ltibia 8.06331
lfoot -9.38479 2.68238
ltoes -30.3136
159
root 8.81282 16.3103 30.7597 -150.517 -0.678416 179.236
lowerback -29.0867 -1.3199 -5.94243
upperback -2.2873 -0.566074 -0.570278
thorax 12.8038 -0.912197 2.32323
lowerneck -7.80977 -1.2049 -0.720922
upperneck -0.0120609 -1.87732 5.56514
head 1.39953 -0.908422 1.81589
rclavicle -6.85807e-015 -1.98785e-015
rhumerus -36.5511 -19.8728 -80.3484
rradius 30.661
rwrist -0.392254
rhand -5.79605 -46.582
rfingers 7.12502
rthumb 20.0284 -75.5698
lclavicle -6.85807e-015 -1.98785e-015
lhumerus -30.0816 8.12722 80.0009
lradius 21.4377
lwrist -6.29705
lhand -21.1498 -13.8027
lfingers 7.12502
lthumb 5.22967 16.1128
rfemur -25.2788 5.87201 17.9434
rtibia 6.39466
rfoot -19.6632 -7.89604
rtoes -31.424
lfemur -26.1467 -9.70978 -17.6393
ltibia 8.27455
lfoot -9.49681 2.51459
ltoes -30.691
160
root 8.81408 16.3087 30.7622 -150.428 -0.657022 179.244
lowerback -29.0613 -1.35587 -5.94563
upperback -2.33178 -0.628192 -0.522249
thorax 12.7474 -0.942001 2.35362
lowerneck -7.776 -1.18717 -0.910749
upperneck -0.00139173 -1.83553 5.63345
head 1.39975 -0.885623 1.87362
rclavicle 1.98785e-016 -2.22639e-014
rhumerus -36.4697 -19.6797 -80.36
rradius 30.6027
rwrist -0.448352
rhand -5.77178 -46.514
rfingers 7.12502
rthumb 20.0517 -75.4993
lclavicle 1.98785e-016 -2.22639e-014
lhumerus -30.3604 8.66724 79.9436
lradius 21.587
lwrist -6.77543
lhand -21.2089 -14.0467
lfingers 7.12502
lthumb 5.17263 15.8702
rfemur -25.5297 5.59086 18.0157
rtibia 6.66071
rfoot -19.6859 -7.68247
rtoes -30.9999
lfemur -26.2995 -9.83578 -17.578
ltibia 8.3818
lfoot -9.55882 2.64698
ltoes -31.6399
161
root 8.81488 16.3087 30.7655 -150.407 -0.618859 179.192
lowerback -28.8593 -1.40111 -6.00943
upperback -2.74499 -0.689812 -0.573086
thorax 12.9714 -0.983774 2.46388
lowerneck -7.80958 -1.17197 -0.985078
upperneck 0.00850622 -1.80856 5.64059
head 1.40918 -0.871164 1.89027
rclavicle -3.77691e-015 7.15625e-015
rhumerus -36.4225 -19.453 -80.4086
rradius 30.6307
rwrist -0.623877
rhand -5.7177 -46.4421
rfingers 7.12502
rthumb 20.1037 -75.422
lclavicle -3.77691e-015 7.15625e-015
lhumerus -30.4692 8.91436 79.9244
lradius 21.6449
lwrist -7.03445
lhand -21.3122 -13.9531
lfingers 7.12502
lthumb 5.07289 15.9662
rfemur -25.7012 5.51904 17.9535
rtibia 6.91518
rfoot -19.826 -7.56399
rtoes -30.2405
lfemur -26.3854 -9.91162 -17.6211
ltibia 8.4666
lfoot -9.5535 2.72644
ltoes -32.9956
162
root 8.81558 16.3099 30.7672 -150.48 -0.611292 179.129
lowerback -28.6672 -1.43722 -6.10807
upperback -2.72679 -0.710157 -0.560223
thorax 12.8949 -0.992906 2.53061
lowerneck -7.87906 -1.17026 -0.988911
upperneck 0.0510026 -1.80949 5.65841
head 1.43562 -0.86982 1.89696
rclavicle 1.98785e-015 2.38542e-014
rhumerus -36.3793 -19.434 -80.3816
rradius 30.6294
rwrist -0.638138
rhand -5.66471 -46.3649
rfingers 7.12502
rthumb 20.1546 -75.3394
lclavicle 1.98785e-015 2.38542e-014
lhumerus -30.4196 8.81227 79.992
lradius 21.655
lwrist -6.9099
lhand -21.2568 -13.6824
lfingers 7.12502
lthumb 5.12637 16.2356
rfemur -25.7959 5.84419 17.7957
rtibia 7.22561
rfoot -20.0832 -7.90041
rtoes -30.5691
lfemur -26.3496 -10.0227 -17.667
ltibia 8.46695
lfoot -9.547 2.80043
ltoes -33.5246
